# xmcd
#
# Track frame offsets:
#	150
#	11066
#	19762
#	28514
#	40661
#	51948
#	63379
#	74528
#	88056
#	98421
#	109557
#	122592
#
# Disc length: 1811 seconds
#
# Revision: 0
# Processed by: cddbd v1.5.2PL0 Copyright (c) Steve Scherf et al.
# Submitted via: audiograbber 1.83.01
#
DISCID=9307110c
DTITLE=The Pretty Things - We Want Your Love
DYEAR=1967
DGENRE=Rock
TTITLE0=You Don't Believe Me
TTITLE1=Buzz The Jerk
TTITLE2=Get The Picture?
TTITLE3=Can't Stand The Pain
TTITLE4=Rainin' In My Heart
TTITLE5=We'll Play House
TTITLE6=You'll Never Do It Baby
TTITLE7=I Had A Dream
TTITLE8=I Want Your Love
TTITLE9=London Town
TTITLE10=Cry To Me
TTITLE11=Gonna Find Me A Substitute
EXTD=
EXTT0=
EXTT1=
EXTT2=
EXTT3=
EXTT4=
EXTT5=
EXTT6=
EXTT7=
EXTT8=
EXTT9=
EXTT10=
EXTT11=
PLAYORDER=
